<?xml version="1.0" encoding="iso-8859-1"?>
<!-- Generator: Adobe Illustrator 19.0.0, SVG Export Plug-In . SVG Version: 6.00 Build 0)  -->
<svg version="1.1" id="Capa_1" xmlns="http://www.w3.org/2000/svg" xmlns:xlink="http://www.w3.org/1999/xlink" x="0px" y="0px"
	 viewBox="0 0 468.293 468.293" style="enable-background:new 0 0 468.293 468.293;" xml:space="preserve">
<path style="fill:#64798A;" d="M461.63,194.873v12.37c0,2.937-1.919,5.475-4.718,6.365
	c-65.137,20.719-122.007,78.349-170.609,128.368v-41.283C336.076,249.507,394.518,214.245,461.63,194.873z"/>
<path style="fill:#27A2DB;" d="M461.63,155.18v19.919c-13.749,1.153-27.171,2.484-40.195,4.024
	c-21.222,2.494-41.465,5.501-60.764,9.033v-46.097c20.351,3.29,40.63,6.12,60.764,8.247c11.683,1.246,23.312,2.256,34.91,2.994
	C459.431,153.496,461.63,154.268,461.63,155.18z"/>
<g>
	<polygon style="fill:#DC8744;" points="226.265,387.467 208.127,405.606 53.95,405.606 72.088,387.467 	"/>
	<path style="fill:#DC8744;" d="M196.337,417.396l-18.138,18.138H25.762c-0.544,0-1.088-0.036-1.596-0.145l17.993-17.994H196.337z"
		/>
</g>
<g>
	<path style="fill:#D5D6DB;" d="M234.536,379.197l-87.5,87.5c-1.052,1.052-2.43,1.596-3.845,1.596c-1.379,0-2.757-0.544-3.845-1.596
		c-2.104-2.141-2.104-5.587,0-7.727l87.464-87.464c2.14-2.104,5.587-2.104,7.727,0C236.641,373.646,236.641,377.093,234.536,379.197
		z"/>
	<path style="fill:#D5D6DB;" d="M103.431,371.542l-87.5,87.5c-1.052,1.052-2.43,1.56-3.845,1.56c-1.379,0-2.757-0.508-3.845-1.56
		c-2.104-2.14-2.104-5.586,0-7.727l87.464-87.464c2.14-2.104,5.587-2.104,7.727,0C105.535,365.992,105.535,369.438,103.431,371.542z
		"/>
</g>
<polygon style="fill:#3A556A;" points="286.304,291.007 286.304,341.976 249.12,380.067 68.678,380.067 35.993,339.691 
	35.993,291.007 "/>
<polygon style="fill:#F7BE56;" points="286.297,33.441 236.823,0 85.46,0 35.986,33.441 "/>
<g>
	<polygon style="fill:#FCD462;" points="153.02,13.99 102.661,13.99 64.432,34.16 153.02,34.16 	"/>
	<polygon style="fill:#FCD462;" points="163.367,34.16 257.85,34.16 219.621,13.99 163.367,13.99 	"/>
</g>
<rect x="35.984" y="33.442" style="fill:#DC8744;" width="250.318" height="267.251"/>
<path id="SVGCleanerId_0" style="fill:#FCD462;" d="M461.63,125.917v68.956c-13.749,3.99-27.171,8.598-40.195,13.93v-99.762
	c11.683,4.315,23.312,7.809,34.91,10.364C459.431,120.086,461.63,122.757,461.63,125.917z"/>
<path style="fill:#FCD462;" d="M461.63,125.924v68.949c-67.112,19.372-125.555,54.633-175.326,105.82V33.441
	c57.282,39.454,114.258,73.693,170.034,85.966C459.427,120.086,461.63,122.761,461.63,125.924z"/>
<path style="fill:#F7BE56;" d="M461.63,125.917v68.956c-13.749,3.99-27.171,8.598-40.195,13.93
	c-21.222,8.634-41.465,19.045-60.764,31.271V80.492c20.351,11.391,40.63,21.186,60.764,28.55
	c11.683,4.315,23.312,7.809,34.91,10.364C459.431,120.086,461.63,122.757,461.63,125.917z"/>
<g>
	<path id="SVGCleanerId_0_1_" style="fill:#FCD462;" d="M461.63,125.917v68.956c-13.749,3.99-27.171,8.598-40.195,13.93v-99.762
		c11.683,4.315,23.312,7.809,34.91,10.364C459.431,120.086,461.63,122.757,461.63,125.917z"/>
</g>
<g>
	<path style="fill:#27A2DB;" d="M309.217,134.228v63.377c10.216-2.479,20.649-4.845,31.48-6.998v-50.657
		C330.228,138.169,319.722,136.19,309.217,134.228z"/>
	<path style="fill:#27A2DB;" d="M407.949,148.634c-10.252-1.213-20.507-2.586-30.814-4.137v40.897
		c10.049-1.61,20.295-3.143,30.814-4.522V148.634z"/>
</g>
<path style="fill:#2D93BA;" d="M452.827,153.015c-6.752-0.47-13.514-1.003-20.293-1.639v26.539
	c6.677-0.719,13.453-1.385,20.293-2.016V153.015z"/>
<path style="fill:#EBF0F3;" d="M304.077,255.071l-48.841-69.362c-0.067-0.095-0.948-1.531-2.929-1.531
	c-0.011,0-0.02-0.006-0.031-0.006h-57.101c-2.003,0-3.628,1.623-3.628,3.628v96.134c0,2.005,1.624,3.628,3.628,3.628h53.466v35.806
	c0,2.005,1.624,3.628,3.628,3.628h48.841c2.003,0,3.628-1.623,3.628-3.628v-66.205C304.738,256.413,304.508,255.684,304.077,255.071
	z M198.803,280.305v-88.879h49.838v88.879H198.803z M297.483,319.739h-41.586l0.007-120.477l41.579,59.047V319.739z"/>
<path style="fill:#D5D6DB;" d="M122.912,184.172h-57.1c-1.886,0-2.467,0.653-2.975,1.524l-48.829,69.361
	c-0.436,0.617-0.653,1.343-0.653,2.104v66.205c0,1.995,1.633,3.628,3.628,3.628h48.829c1.995,0,3.628-1.632,3.628-3.628v-35.805
	h53.472c1.995,0,3.628-1.633,3.628-3.628v-96.134C126.54,185.804,124.907,184.172,122.912,184.172z M62.184,283.933c0,0,0,0,0,0.036
	v35.769H20.611v-61.417l41.573-59.059V283.933z M119.284,280.306H69.44v-88.879h49.845V280.306z"/>
<g>
	<path style="fill:#FFFFFF;" d="M266.46,337.406l-24.632,24.668c-0.726,0.69-1.633,1.052-2.576,1.052
		c-0.907,0-1.85-0.363-2.539-1.052c-1.415-1.451-1.415-3.736,0-5.151l24.632-24.632c1.415-1.414,3.7-1.414,5.115,0
		C267.875,333.705,267.875,335.991,266.46,337.406z"/>
	<path style="fill:#FFFFFF;" d="M241.32,337.406l-24.632,24.668c-0.726,0.69-1.633,1.052-2.576,1.052s-1.85-0.363-2.576-1.052
		c-1.415-1.451-1.415-3.736,0-5.151l24.669-24.632c1.415-1.414,3.7-1.414,5.115,0C242.735,333.705,242.735,335.991,241.32,337.406z"
		/>
	<path style="fill:#FFFFFF;" d="M106.225,356.923c1.415,1.415,1.415,3.7,0,5.151c-0.689,0.69-1.633,1.052-2.539,1.052
		c-0.943,0-1.886-0.363-2.576-1.052l-24.632-24.668c-1.415-1.415-1.415-3.7,0-5.115c1.415-1.414,3.7-1.414,5.115,0L106.225,356.923z
		"/>
	<path style="fill:#FFFFFF;" d="M81.085,356.923c1.415,1.415,1.415,3.7,0,5.151c-0.726,0.69-1.632,1.052-2.576,1.052
		c-0.907,0-1.85-0.363-2.539-1.052l-24.668-24.668c-1.415-1.415-1.415-3.7,0-5.115c1.415-1.414,3.737-1.414,5.151,0L81.085,356.923z
		"/>
</g>
<g>
	<polygon style="fill:#27A2DB;" points="45.932,51.216 154.473,51.216 154.473,98.884 45.932,106.176 	"/>
	<polygon style="fill:#27A2DB;" points="276.364,51.216 276.364,106.176 164.812,98.703 164.812,51.216 	"/>
</g>
<path style="fill:#F7BE56;" d="M286.297,142.562v11.935c-82.385-37.51-166.402-38.707-250.311-3.591v-11.754
	C119.858,105.16,203.839,106.321,286.297,142.562z"/>
<g>
	<circle style="fill:#D5D6DB;" cx="223.719" cy="262.057" r="12.694"/>
	<circle style="fill:#D5D6DB;" cx="94.37" cy="259.497" r="12.694"/>
</g>
<g>
</g>
<g>
</g>
<g>
</g>
<g>
</g>
<g>
</g>
<g>
</g>
<g>
</g>
<g>
</g>
<g>
</g>
<g>
</g>
<g>
</g>
<g>
</g>
<g>
</g>
<g>
</g>
<g>
</g>
</svg>
